<?xml version="1.0" encoding="UTF-8"?>
<svg version="1.1" xmlns="http://www.w3.org/2000/svg" width="1024" height="1024">
<path d="M0 0 C337.92 0 675.84 0 1024 0 C1024 337.92 1024 675.84 1024 1024 C686.08 1024 348.16 1024 0 1024 C0 686.08 0 348.16 0 0 Z " fill="#2E509F" transform="translate(0,0)"/>
<path d="M0 0 C0.969375 0.52980469 1.93875 1.05960937 2.9375 1.60546875 C6.59567102 3.57562735 10.23730926 5.36148611 14.06188965 6.98472595 C17.00271885 8.25199558 19.89738023 9.61389889 22.796875 10.97265625 C23.74170746 11.41461838 23.74170746 11.41461838 24.70562744 11.86550903 C26.70008239 12.79860414 28.69384326 13.73316956 30.6875 14.66796875 C33.30693054 15.89530389 35.92671064 17.12188848 38.546875 18.34765625 C39.18449265 18.64599869 39.82211029 18.94434113 40.47904968 19.25172424 C45.10145006 21.41104775 49.7423548 23.52691809 54.39013672 25.63085938 C58.65658554 27.57721709 62.89212813 29.58734052 67.125 31.60546875 C68.02557129 32.0341626 68.92614258 32.46285645 69.85400391 32.90454102 C76.17503952 35.92411908 82.4588015 39.01110181 88.69995117 42.19262695 C92.71573032 44.22923583 96.79576908 46.02960999 100.9375 47.79296875 C102.61206448 48.6103157 104.27965022 49.44223005 105.9375 50.29296875 C108.7519176 51.71713187 111.53568259 53.04933272 114.4375 54.29296875 C118.14970172 55.88391234 121.72060755 57.66851078 125.3125 59.51171875 C128.47569879 61.05566102 131.69532537 62.4227434 134.9375 63.79296875 C143.75152552 67.55061352 152.40722148 71.47425269 160.9453125 75.83203125 C166.96377153 78.84284041 173.14230772 81.52852641 179.29931641 84.24145508 C198.96263 93.01877871 208.04444352 112.8581892 219.390625 130.29443359 C223.04024834 135.89960968 226.71435666 141.48637637 230.4375 147.04296875 C245.67588973 169.8183597 245.67588973 169.8183597 244.9375 177.79296875 C243.73517473 182.0011072 240.52941726 183.67206669 236.9375 185.79296875 C233.68646207 187.46465289 230.37909109 189.00624913 227.0625 190.54296875 C220.51652331 193.59508058 214.02134432 196.73105376 207.56591797 199.96972656 C206.82961655 200.33852936 206.09331512 200.70733215 205.33470154 201.08731079 C203.53536816 201.98866558 201.73639677 202.89074292 199.9375 203.79296875 C199.93530016 204.89926148 199.93530016 204.89926148 199.93305588 206.02790356 C199.89600745 223.97195655 199.8370189 241.91581455 199.75359726 259.85971355 C199.71378447 268.53725686 199.68140339 277.21470919 199.66650391 285.89233398 C199.65349896 293.45558711 199.62656404 301.01864024 199.58288693 308.58178073 C199.56024589 312.58661476 199.54459089 316.59120187 199.54561615 320.59610558 C199.54636122 324.36617378 199.52847286 328.13569563 199.49633217 331.90562248 C199.48781794 333.28868366 199.48609363 334.67180602 199.49169731 336.05488205 C199.49833459 337.9449126 199.47806079 339.83498028 199.45648193 341.72489929 C199.45279476 342.78219584 199.44910759 343.8394924 199.44530869 344.92882824 C198.80491792 348.54075764 197.47057937 350.18131041 194.9375 352.79296875 C192.51874273 354.21526616 190.2192406 355.43514159 187.6875 356.60546875 C186.23675965 357.30162606 184.78624467 357.9982532 183.3359375 358.6953125 C182.23137207 359.21907471 182.23137207 359.21907471 181.10449219 359.75341797 C178.45240538 361.02567863 175.83495653 362.35960723 173.21582031 363.69799805 C165.2825649 367.74094619 157.20301964 371.42249346 149.08496094 375.07714844 C141.58586362 378.46593816 134.21822597 382.06351496 126.88916016 385.80322266 C124.78998777 386.86777668 122.68321255 387.9159825 120.57421875 388.9609375 C119.85089355 389.31978027 119.12756836 389.67862305 118.38232422 390.04833984 C117.00563786 390.73085094 115.62839797 391.41224719 114.25048828 392.09228516 C111.52299612 393.44932718 108.86065826 394.83949883 106.25390625 396.41796875 C104.04430329 397.72957118 101.97433391 398.6130548 99.5625 399.48046875 C94.31969758 401.51195702 89.485538 404.10247156 84.55957031 406.78857422 C79.89941401 409.31746046 75.1754402 411.58594471 70.3046875 413.6875 C67.88972096 414.76135391 67.88972096 414.76135391 65.5703125 416.2421875 C62.46164014 418.07326009 59.26485522 419.39921974 55.9375 420.79296875 C53.27916999 421.99569347 50.63903351 423.23605395 48 424.48046875 C47.25766113 424.83004639 46.51532227 425.17962402 45.75048828 425.53979492 C40.26411171 428.13630732 34.83047864 430.82657317 29.4140625 433.56542969 C22.13128508 437.23185742 14.76142877 440.71617588 7.39013672 444.20043945 C6.43768066 444.65249756 5.48522461 445.10455566 4.50390625 445.5703125 C3.64740479 445.97499756 2.79090332 446.37968262 1.90844727 446.79663086 C-0.01258245 447.63903437 -0.01258245 447.63903437 -1.0625 448.79296875 C-10.75038063 450.68376235 -17.81764303 446.41213968 -25.98193359 441.921875 C-29.2977483 440.12272842 -32.68056186 438.46338965 -36.0625 436.79296875 C-37.39619153 436.12701896 -38.72952462 435.46035084 -40.0625 434.79296875 C-40.7225 434.46296875 -41.3825 434.13296875 -42.0625 433.79296875 C-80.0625 414.79296875 -80.0625 414.79296875 -82.06225586 413.79296875 C-83.39627284 413.12604167 -84.73042013 412.45937518 -86.06469727 411.79296875 C-89.38868585 410.13239341 -92.71032244 408.46742269 -96.02734375 406.79296875 C-102.80687959 403.37692356 -109.61312617 400.05010128 -116.5 396.85546875 C-122.15816069 394.2265607 -127.69655605 391.44215563 -133.1875 388.48046875 C-140.87212198 384.33897993 -148.70791264 380.56148748 -156.5949707 376.82250977 C-164.81037761 372.92666396 -172.94753115 368.89296465 -181.0625 364.79296875 C-182.72867269 363.9586482 -184.39528255 363.12519961 -186.0625 362.29296875 C-186.81789063 361.91140625 -187.57328125 361.52984375 -188.3515625 361.13671875 C-190.58645996 360.02893096 -192.83124352 358.95314214 -195.0859375 357.88671875 C-196.53647755 357.18884202 -197.98699831 356.49092521 -199.4375 355.79296875 C-200.1284375 355.47263672 -200.819375 355.15230469 -201.53125 354.82226562 C-202.18867188 354.50322266 -202.84609375 354.18417969 -203.5234375 353.85546875 C-204.10915527 353.57832031 -204.69487305 353.30117188 -205.29833984 353.015625 C-207.82960674 351.26132323 -209.31997378 349.33268171 -211.0625 346.79296875 C-211.55469131 343.96006298 -211.55469131 343.96006298 -211.54351807 340.80082703 C-211.54901672 339.59914383 -211.55451538 338.39746063 -211.56018066 337.15936279 C-211.54579956 335.8495343 -211.53141846 334.53970581 -211.51660156 333.19018555 C-211.5154727 331.79045138 -211.5161077 330.39071485 -211.51837158 328.99098206 C-211.51951818 325.19780243 -211.49601826 321.40512984 -211.46807575 317.61206794 C-211.44305272 313.64560508 -211.4407194 309.67913031 -211.43597412 305.71260071 C-211.42354696 298.20447018 -211.39072899 290.69657291 -211.35057616 283.18854505 C-211.30585028 274.63965254 -211.28386938 266.09074883 -211.26379442 257.54176843 C-211.22199603 239.95870033 -211.15164916 222.37585921 -211.0625 204.79296875 C-211.97122864 204.49817123 -211.97122864 204.49817123 -212.89831543 204.19741821 C-214.10010437 203.80313126 -214.10010437 203.80313126 -215.32617188 203.40087891 C-216.11761597 203.14247223 -216.90906006 202.88406555 -217.7244873 202.61782837 C-221.15287044 201.40828198 -224.33839593 199.83669041 -227.5625 198.16796875 C-228.23321533 197.82459473 -228.90393066 197.4812207 -229.5949707 197.12744141 C-231.01612531 196.39772591 -232.43578166 195.66508589 -233.85400391 194.9296875 C-236.12624579 193.76015863 -238.41146424 192.61931323 -240.69921875 191.48046875 C-242.2165986 190.71052707 -243.73353776 189.93971616 -245.25 189.16796875 C-245.95640625 188.82040527 -246.6628125 188.4728418 -247.390625 188.11474609 C-252.11578775 185.67136352 -255.00685825 183.17816455 -258.0625 178.79296875 C-259.8303986 168.18557715 -250.59233142 158.22148839 -245.0625 149.79296875 C-243.71194533 147.72805701 -242.36171091 145.66293579 -241.01171875 143.59765625 C-238.77691523 140.17900815 -236.5416221 136.76068452 -234.30419922 133.34375 C-230.51172701 127.55063784 -226.73104964 121.75086281 -223 115.91796875 C-219.67523112 110.73184278 -216.33873732 105.55684072 -212.859375 100.47265625 C-211.0842513 97.90972826 -211.0842513 97.90972826 -209.828125 95.55078125 C-205.50097524 88.32949885 -197.61472039 85.89472038 -190.19238281 82.73242188 C-187.39829109 81.49999811 -184.6914224 80.11733699 -181.96972656 78.73413086 C-179.05472524 77.29566054 -176.05294643 76.06570799 -173.0625 74.79296875 C-170.00844106 73.38139932 -166.97330142 71.93081167 -163.9375 70.48046875 C-154.83719794 66.15189029 -145.73598536 61.82650959 -136.5 57.79296875 C-131.93290488 55.78277403 -127.49750118 53.52737992 -123.0546875 51.2578125 C-120.40244921 49.95939297 -117.72352539 48.78297907 -115.00390625 47.63452148 C-111.16668481 45.97117864 -107.40115372 44.15206611 -103.625 42.35546875 C-102.81740234 41.97326172 -102.00980469 41.59105469 -101.17773438 41.19726562 C-97.39785137 39.40326797 -93.63475173 37.58624335 -89.90234375 35.6953125 C-86.35043228 33.90650037 -82.7259011 32.34206407 -79.0625 30.79296875 C-76.82905699 29.76050288 -74.60007534 28.71834639 -72.375 27.66796875 C-66.29885138 24.81261247 -60.18928118 22.03785057 -54.0625 19.29296875 C-48.19206515 16.66017437 -42.33168002 14.01064488 -36.5 11.29296875 C-34.73462891 10.47119141 -34.73462891 10.47119141 -32.93359375 9.6328125 C-29.98917525 8.24715813 -27.07333172 6.80949151 -24.16015625 5.359375 C-23.31461182 4.94429688 -22.46906738 4.52921875 -21.59790039 4.1015625 C-19.94948121 3.29140058 -18.30635893 2.47033905 -16.66967773 1.63671875 C-10.82804433 -1.21728493 -6.32640735 -2.49344371 0 0 Z " fill="#FBFCFD" transform="translate(518.0625,280.20703125)"/>
<path d="M0 0 C0.8559375 0.47308594 1.711875 0.94617188 2.59375 1.43359375 C7.31582321 3.94015337 12.06008093 6.30620516 16.90625 8.55859375 C21.86192122 10.87332055 26.80671372 13.20815792 31.734375 15.58203125 C41.00854412 20.04919445 50.27946149 24.46346436 59.73950195 28.52416992 C64.49910477 30.57758621 69.10444647 32.85753651 73.71875 35.21484375 C78.045201 37.33800952 82.44017358 39.28913248 86.84375 41.24609375 C93.75875585 44.32143802 100.55484256 47.553727 107.29589844 50.99169922 C111.82958374 53.28594954 116.4232164 55.37162809 121.09375 57.37109375 C128.61781324 60.59317844 135.9169986 64.19373823 143.20703125 67.91064453 C145.2397213 68.9454016 147.27484516 69.97505208 149.3125 71 C150.25512695 71.47481812 150.25512695 71.47481812 151.21679688 71.95922852 C154.13100122 73.37501327 157.10342222 74.62512384 160.09375 75.87109375 C158.7070412 78.64451134 157.07880476 78.99740281 154.28125 80.296875 C153.28738281 80.76416016 152.29351563 81.23144531 151.26953125 81.71289062 C150.22152344 82.19822266 149.17351562 82.68355469 148.09375 83.18359375 C141.71265808 86.15577535 135.40355768 89.12666912 129.32421875 92.68432617 C127.09375 93.87109375 127.09375 93.87109375 123.97857666 95.18719482 C119.80484464 96.96379548 115.76002227 98.96778334 111.70605469 101.00024414 C110.896745 101.40402283 110.0874353 101.80780151 109.25360107 102.22381592 C106.58993599 103.5534567 103.92773718 104.88600318 101.265625 106.21875 C99.39306366 107.15469325 97.52044299 108.09051781 95.64776611 109.02622986 C91.71992907 110.98941191 87.79281717 112.95403514 83.86621094 114.91967773 C78.88903337 117.41109056 73.91009474 119.89895944 68.93058395 122.38570499 C65.05681527 124.32076003 61.18402357 126.25776408 57.31150055 128.19531059 C55.47980165 129.11148868 53.64781643 130.0270946 51.81551361 130.94206429 C41.5937585 136.04780267 31.41934152 141.22789801 21.32556534 146.58293247 C15.8295383 149.49851908 10.29247536 152.29737517 4.65625 154.93359375 C3.86927734 155.30935547 3.08230469 155.68511719 2.27148438 156.07226562 C-4.7015891 159.36033341 -4.7015891 159.36033341 -7.90625 159.87109375 C-10.34139859 158.86625548 -12.53848563 157.80757688 -14.84375 156.55859375 C-16.28266308 155.80760924 -17.72283297 155.05902932 -19.1640625 154.3125 C-19.93137695 153.91305176 -20.69869141 153.51360352 -21.48925781 153.10205078 C-25.68425798 150.96556686 -29.95604597 148.99297251 -34.21875 146.99609375 C-41.78703999 143.42721756 -49.207941 139.65076529 -56.58325195 135.70068359 C-63.85503254 131.83440549 -71.26907244 128.29043265 -78.72802734 124.80102539 C-84.41671654 122.12491924 -89.94867641 119.26411748 -95.42895508 116.18212891 C-97.77781654 114.93906336 -100.10955461 113.93354698 -102.59375 112.99609375 C-113.22229639 108.92630225 -123.23912864 103.25862279 -133.24951172 97.88085938 C-142.80265722 92.76373119 -152.36434782 87.71658316 -162.51171875 83.87890625 C-167.16538098 81.92026864 -171.52527198 79.36975042 -175.90625 76.87109375 C-175.90625 76.21109375 -175.90625 75.55109375 -175.90625 74.87109375 C-170.30283777 72.01865252 -164.6866545 69.34840996 -158.90625 66.87109375 C-156.43679115 65.65239977 -153.98128609 64.40959911 -151.53125 63.15234375 C-148.36805121 61.60840148 -145.14842463 60.2413191 -141.90625 58.87109375 C-134.35731369 55.6527889 -126.84679283 52.40969215 -119.53125 48.68359375 C-112.92125017 45.32219452 -106.20871487 42.21278023 -99.46875 39.12109375 C-90.70875555 35.10070533 -81.97465045 31.03371095 -73.28125 26.87109375 C-72.35256104 26.42668945 -71.42387207 25.98228516 -70.46704102 25.52441406 C-66.45162829 23.5964268 -62.44807816 21.64993128 -58.46875 19.6484375 C-56.18809903 18.51061273 -53.87614081 17.43234354 -51.53125 16.43359375 C-47.77943913 14.81643389 -44.16464712 13.01685017 -40.53125 11.15234375 C-38.60816898 10.21369706 -36.65174241 9.34256029 -34.6796875 8.51171875 C-31.84603717 7.31634436 -29.11704789 5.98203471 -26.3828125 4.57421875 C-25.58875 4.17332031 -24.7946875 3.77242188 -23.9765625 3.359375 C-22.34620021 2.53377621 -20.72365842 1.69254919 -19.109375 0.8359375 C-12.23498818 -2.5790087 -7.15729638 -2.78018636 0 0 Z " fill="#28468B" transform="translate(519.90625,304.12890625)"/>
<path d="M0 0 C0 40.26 0 80.52 0 122 C-4.62 123.98 -9.24 125.96 -14 128 C-15.32 128.99 -16.64 129.98 -18 131 C-19.43662735 131.63491396 -20.8980107 132.21566257 -22.375 132.75 C-31.55016558 136.28724995 -40.35162706 140.90936773 -48.83984375 145.859375 C-51.20779977 147.10972429 -53.64406886 148.13567506 -56.1105957 149.17431641 C-59.3474781 150.58885785 -62.47837167 152.20950066 -65.625 153.8125 C-71.76556388 156.91755337 -77.95009422 159.86210897 -84.23046875 162.67578125 C-86.99058303 163.93777602 -86.99058303 163.93777602 -89.42578125 165.48046875 C-91.84673042 166.90952676 -94.2837398 168.00650116 -96.87548828 169.08447266 C-101.63112287 171.13384403 -106.2728585 173.44074326 -110.9375 175.6875 C-112.05560059 176.2249585 -113.17370117 176.76241699 -114.32568359 177.31616211 C-120.89593619 180.48174302 -127.43966149 183.69221085 -133.94726562 186.984375 C-140.85485399 190.46332689 -147.84898221 193.76266399 -154.84619141 197.05688477 C-160.09797471 199.54570186 -165.20556008 202.16069651 -170.22485352 205.09301758 C-172 206 -172 206 -174 206 C-174 142.64 -174 79.28 -174 14 C-173.34 14 -172.68 14 -172 14 C-170.79833984 15.40185547 -170.79833984 15.40185547 -169.4609375 17.3671875 C-168.96722656 18.08269775 -168.47351563 18.79820801 -167.96484375 19.53540039 C-167.44019531 20.30746826 -166.91554688 21.07953613 -166.375 21.875 C-162.46951514 27.51928372 -158.49818955 33.01091403 -154.1484375 38.32421875 C-151.23437094 41.95355619 -148.42635458 45.65829783 -145.625 49.375 C-145.10035156 50.06601807 -144.57570313 50.75703613 -144.03515625 51.46899414 C-143.54144531 52.12633545 -143.04773438 52.78367676 -142.5390625 53.4609375 C-142.09771973 54.04665527 -141.65637695 54.63237305 -141.20166016 55.23583984 C-140 57 -140 57 -139.02880859 59.15869141 C-138.07642469 61.34893207 -138.07642469 61.34893207 -135 62 C-125.88338792 63.80104149 -118.80841697 59.33207022 -111.09667969 55.12890625 C-107.77121144 53.33838865 -104.38521947 51.67389078 -101 50 C-99.66634099 49.33398509 -98.33300797 48.66731699 -97 48 C-73 36 -73 36 -70.99975586 35 C-69.66710607 34.33359376 -68.33458638 33.66692727 -67.00219727 33 C-63.6594268 31.32718536 -60.31448271 29.65902312 -56.96484375 28 C-55.62220427 27.33371922 -54.27975574 26.66705351 -52.9375 26 C-52.27782227 25.67217529 -51.61814453 25.34435059 -50.93847656 25.0065918 C-46.32432672 22.69895058 -41.78244625 20.2759249 -37.25 17.8125 C-32.04140856 14.98801405 -26.77517055 12.61386725 -21.26953125 10.4296875 C-16.20657008 8.21577616 -11.3774348 5.57822941 -6.52197266 2.94555664 C-1.08507781 0 -1.08507781 0 0 0 Z " fill="#2A488E" transform="translate(696,495)"/>
<path d="M0 0 C6.75598404 2.25199468 6.75598404 2.25199468 9.7421875 3.6640625 C10.40742432 3.97730469 11.07266113 4.29054688 11.75805664 4.61328125 C12.8059436 5.11408203 12.8059436 5.11408203 13.875 5.625 C14.6167749 5.97691406 15.3585498 6.32882812 16.12280273 6.69140625 C23.13464616 10.03342343 30.08224279 13.49973706 37.01611328 17 C40.33975019 18.67531587 43.67022014 20.33693716 47 22 C48.33336588 22.66660157 49.66669922 23.33326822 51 24 C51.66 24.33 52.32 24.66 53 25 C119 58 119 58 121.15234375 59.1875 C125.05921319 60.90553138 128.87118762 60.84543615 133 60 C134.90516344 58.49813742 134.90516344 58.49813742 136.4453125 56.453125 C137.04029541 55.72496582 137.63527832 54.99680664 138.24829102 54.24658203 C138.82635498 53.50520996 139.40441895 52.76383789 140 52 C140.51167725 51.35272949 141.02335449 50.70545898 141.55053711 50.03857422 C143.07474541 48.08199307 144.57146564 46.10695866 146.0625 44.125 C147.18673239 42.64134512 148.31176153 41.1582937 149.4375 39.67578125 C150.30568359 38.53230225 150.30568359 38.53230225 151.19140625 37.36572266 C154.86119986 32.56546616 158.59481048 27.8141641 162.33032227 23.06494141 C164.78055516 19.93307553 167.17007363 16.8146009 169.33984375 13.48046875 C169.88769531 12.66191406 170.43554688 11.84335937 171 11 C171.33 11 171.66 11 172 11 C172 74.36 172 137.72 172 203 C164.13474701 200.75278486 164.13474701 200.75278486 160.7578125 198.8984375 C159.63729492 198.29322266 159.63729492 198.29322266 158.49414062 197.67578125 C157.71232422 197.24652344 156.93050781 196.81726563 156.125 196.375 C149.98930902 193.07153255 143.83299459 189.90777084 137.5 187 C131.448579 184.21568189 125.55591416 181.21352041 119.6875 178.0625 C113.23061255 174.60194594 106.70727877 171.44518331 100 168.5 C92.60907475 165.25253719 85.47183819 161.69573416 78.36206055 157.87548828 C71.12730542 154.01029408 63.75177782 150.47618527 56.33886719 146.9675293 C50.83374994 144.3604987 45.36604527 141.70005927 39.9375 138.9375 C32.69017457 135.26005114 25.30440069 131.90544404 17.88647461 128.58764648 C17.00870361 128.19391846 16.13093262 127.80019043 15.2265625 127.39453125 C14.07534912 126.88176636 14.07534912 126.88176636 12.90087891 126.35864258 C8.55920849 124.32519738 4.28812326 122.14406163 0 120 C0 80.4 0 40.8 0 0 Z " fill="#29478C" transform="translate(329,497)"/>
<path d="M0 0 C1.2831085 1.86743491 2.47481119 3.79788672 3.625 5.75 C4.34449059 6.9529395 5.06589022 8.15473897 5.7890625 9.35546875 C6.34062012 10.27271729 6.34062012 10.27271729 6.90332031 11.20849609 C9.7786946 15.90562355 12.91946334 20.43624198 16 25 C21.10476189 32.60325379 26.11329837 40.25481514 31 48 C31.51046875 48.79019531 32.0209375 49.58039063 32.546875 50.39453125 C33.00578125 51.10996094 33.4646875 51.82539063 33.9375 52.5625 C34.33839844 53.18253906 34.73929688 53.80257812 35.15234375 54.44140625 C36 56 36 56 36 58 C33.7333322 59.1333339 31.46651882 60.26636856 29.19921875 61.3984375 C26.99141868 62.5036854 24.78581861 63.61333506 22.58203125 64.7265625 C14.60111592 68.7509094 6.57001187 72.65729454 -1.5 76.5 C-10.08659284 80.5894874 -18.62373303 84.76050967 -27.11279297 89.04833984 C-30.40397922 90.70798331 -33.7024596 92.35302868 -37 94 C-38.32555338 94.66269532 -39.65107422 95.32545572 -40.9765625 95.98828125 C-107.28125 129.140625 -107.28125 129.140625 -109.125 130.06152344 C-110.41770195 130.70854769 -111.70930539 131.35776976 -113 132.00878906 C-117.29857951 134.17254519 -121.6250894 136.24483264 -126 138.25 C-127.7015625 139.03117187 -127.7015625 139.03117187 -129.4375 139.828125 C-130.283125 140.21484375 -131.12875 140.6015625 -132 141 C-136.73292924 135.20912187 -141.28757106 129.31264804 -145.75 123.3125 C-150.34378962 117.14055681 -155.07179535 111.09637537 -159.90112305 105.10742188 C-163.36572798 100.80804904 -166.73353947 96.45230429 -170 92 C-170.99886617 90.66581705 -171.9986073 89.33228767 -173 88 C-172.4375 86.1875 -172.4375 86.1875 -171 84 C-169.37364752 83.23661006 -167.73777468 82.48651303 -166.05859375 81.84765625 C-163.75351196 80.89850492 -161.66276594 79.73850699 -159.5 78.5 C-155.76034092 76.38022709 -151.9690757 74.65979529 -148 73 C-143.71714733 70.97778709 -139.55976639 68.76808524 -135.4375 66.4375 C-131.71836287 64.34866956 -127.93804698 62.64681965 -124 61 C-122.04386537 60.05891842 -120.10738481 59.08432136 -118.171875 58.1015625 C-116.62427076 57.31662654 -115.071603 56.54164047 -113.515625 55.7734375 C-109.72133758 53.89928947 -105.96234517 52.01907945 -102.3125 49.875 C-99 48 -99 48 -95.625 46.5625 C-92.76770707 45.33090822 -90.19424732 44.02978449 -87.5 42.5 C-83.76111959 40.37793274 -79.95330828 38.69427498 -76 37 C-73.78047159 35.79511315 -71.58884719 34.55171702 -69.40625 33.28125 C-67 32 -67 32 -63.80859375 30.64746094 C-60.01523339 29.03429179 -56.33246974 27.22166899 -52.65625 25.359375 C-51.2422226 24.64771671 -49.8281588 23.93613074 -48.4140625 23.22460938 C-47.68799805 22.85843506 -46.96193359 22.49226074 -46.21386719 22.11499023 C-42.57388519 20.28175272 -38.92727527 18.46180485 -35.28125 16.640625 C-33.82027992 15.91022141 -32.35934248 15.17975254 -30.8984375 14.44921875 C-13.77539063 5.88769531 -13.77539063 5.88769531 -11.91723633 4.96252441 C-10.54575775 4.27399082 -9.17889393 3.5762344 -7.81518555 2.87243652 C-6.74167847 2.32214783 -6.74167847 2.32214783 -5.64648438 1.76074219 C-4.6711676 1.25568146 -4.6711676 1.25568146 -3.67614746 0.74041748 C-2 0 -2 0 0 0 Z " fill="#28468B" transform="translate(701,394)"/>
<path d="M0 0 C4.55840273 0.61882714 8.27940057 2.46907303 12.3125 4.5625 C13.74601219 5.29312879 15.17960829 6.02359299 16.61328125 6.75390625 C17.34240723 7.12789551 18.0715332 7.50188477 18.82275391 7.88720703 C22.20341359 9.61506606 25.60187891 11.30681711 29 13 C32.99184043 14.99299579 36.98185588 16.98936181 40.96484375 19 C47.7443679 22.4160393 54.55045563 25.74324505 61.4375 28.9375 C68.14998688 32.05232332 74.70351887 35.4089457 81.20483398 38.94311523 C85.38904298 41.20586238 89.61650363 43.14018695 94 45 C96.68583462 46.29587993 99.34220273 47.64774182 102 49 C103.23906663 49.62082401 104.47864164 50.2406345 105.71875 50.859375 C119.23958333 57.61979167 132.76041667 64.38020833 146.28125 71.140625 C146.88590088 71.44291016 147.49055176 71.74519531 148.11352539 72.05664062 C149.44356913 72.72174856 150.77347128 73.38713966 152.10327148 74.05273438 C156.18981092 76.0977295 156.18981092 76.0977295 160.28515625 78.125 C164.62361864 80.26085841 168.82288591 82.56335011 173 85 C171.5 88 171.5 88 170 91 C169.34 91 168.68 91 168 91 C167.72091797 91.58845703 167.44183594 92.17691406 167.15429688 92.78320312 C166.07914993 94.84799463 164.92306377 96.60811474 163.53125 98.46875 C163.04769043 99.11610107 162.56413086 99.76345215 162.06591797 100.43041992 C161.54916504 101.11338135 161.03241211 101.79634277 160.5 102.5 C159.96391113 103.21196533 159.42782227 103.92393066 158.87548828 104.6574707 C154.88515901 109.91981344 150.72812842 114.99852954 146.4609375 120.0390625 C143.73031659 123.32447623 141.10136787 126.67448529 138.5 130.0625 C138.07831543 130.61123779 137.65663086 131.15997559 137.22216797 131.7253418 C135.40225264 134.10899063 133.66438459 136.50342311 132 139 C127.3289519 138.40940771 123.6742284 136.37777015 119.625 134.125 C112.6613218 130.34154789 105.5997179 126.82935255 98.4375 123.4375 C89.23029971 119.07368253 80.09385753 114.5945683 71 110 C69.33382731 109.16567945 67.66721745 108.33223086 66 107.5 C63.21148465 106.10804688 60.42628251 104.71013575 57.64453125 103.3046875 C48.56896579 98.72896146 39.42632616 94.30529603 30.24536133 89.94482422 C24.97601889 87.43902653 19.7407866 84.87797201 14.52783203 82.25708008 C10.00530267 80.00804554 5.43731609 77.85433901 0.875 75.6875 C-8.4732041 71.23299675 -17.75710133 66.66823566 -27 62 C-27.71945801 61.65694824 -28.43891602 61.31389648 -29.18017578 60.96044922 C-29.90575684 60.61127441 -30.63133789 60.26209961 -31.37890625 59.90234375 C-32.04607666 59.58644287 -32.71324707 59.27054199 -33.40063477 58.94506836 C-35 58 -35 58 -36 56 C-34.62890625 53.3828125 -34.62890625 53.3828125 -32.5625 50.125 C-32.19487549 49.54202148 -31.82725098 48.95904297 -31.44848633 48.35839844 C-28.44186753 43.61711782 -25.32923895 38.94693749 -22.1953125 34.2890625 C-14.6375908 22.96592785 -7.35328775 11.45660388 0 0 Z " fill="#284587" transform="translate(323,395)"/>
<path d="M0 0 C0.33 0 0.66 0 1 0 C0.76391852 4.01338522 0.53979049 6.35931409 -2.08984375 9.48046875 C-5.29716406 12.25727627 -8.61750955 14.21976222 -12.375 16.125 C-13.10323975 16.50261475 -13.83147949 16.88022949 -14.58178711 17.26928711 C-22.80215782 21.48949409 -31.1625123 25.42592451 -39.51171875 29.3828125 C-44.58347615 31.79083541 -49.60604026 34.28419447 -54.61578369 36.81791687 C-60.50596457 39.78169282 -66.45245719 42.62331891 -72.40234375 45.46484375 C-81.23298821 49.69277089 -90.04077041 53.96394599 -98.82421875 58.2890625 C-100.41293793 59.07093681 -100.41293793 59.07093681 -102.03375244 59.86860657 C-106.33162996 61.98471641 -110.6288637 64.10211017 -114.92407227 66.22363281 C-127.10682169 72.23821583 -139.31044359 78.15904392 -151.72441101 83.68435669 C-157.07650084 86.07544184 -162.28554876 88.64142059 -167.4375 91.4375 C-177.09087771 96.66813042 -187.00224222 101.33852251 -196.93139648 106.01953125 C-198.29438593 106.66555575 -199.65090018 107.32545009 -201 108 C-209.19571517 108.8310916 -214.5288586 106.38154073 -221.75 102.6875 C-222.84111084 102.14641602 -223.93222168 101.60533203 -225.05639648 101.04785156 C-233.84055438 96.66629906 -242.54086986 92.11862801 -251.21484375 87.5234375 C-261.97981231 81.8269839 -272.92831551 76.53720776 -283.94506836 71.34838867 C-290.90785629 68.06206524 -297.79579924 64.64139353 -304.66943359 61.17333984 C-309.44075252 58.77118619 -314.2214018 56.38762969 -319 54 C-321.08076141 52.95969991 -323.1614912 51.91933656 -325.2421875 50.87890625 C-326.23186523 50.38406738 -327.22154297 49.88922852 -328.24121094 49.37939453 C-335.3203125 45.83984375 -335.3203125 45.83984375 -337.25708008 44.87133789 C-338.5015788 44.24916986 -339.74620759 43.62726195 -340.9909668 43.00561523 C-344.7302477 41.13765331 -348.46590079 39.262667 -352.19921875 37.3828125 C-361.19736814 32.8580559 -370.20997471 28.37422251 -379.3125 24.0625 C-380.05798096 23.70937744 -380.80346191 23.35625488 -381.5715332 22.99243164 C-385.24762679 21.26228596 -388.93921334 19.59022831 -392.66796875 17.9765625 C-396.3191198 16.36230698 -399.65399659 14.50356189 -403 12.3125 C-404.3921875 11.40951172 -404.3921875 11.40951172 -405.8125 10.48828125 C-408 9 -408 9 -409 8 C-409.04063832 6.33382885 -409.042721 4.66611905 -409 3 C-404.88557231 4.45995821 -401.23854349 6.50164477 -397.4765625 8.68359375 C-394.39511865 10.32152211 -391.20890157 11.62914088 -388 13 C-385.50124851 14.19080068 -383.03177719 15.4369196 -380.5625 16.6875 C-379.87148193 17.03490234 -379.18046387 17.38230469 -378.46850586 17.74023438 C-375.63621782 19.16423606 -372.80624097 20.59279383 -369.9765625 22.02197266 C-362.593781 25.74801579 -355.19091381 29.39744793 -347.6875 32.875 C-340.7906122 36.07715472 -334.07750993 39.56216612 -327.37231445 43.14575195 C-321.4495445 46.28973118 -315.44458905 49.21354308 -309.375 52.0625 C-303.03606314 55.03816654 -296.78562277 58.10797488 -290.625 61.4375 C-284.0146602 65.00956177 -277.29303748 68.28981632 -270.5 71.5 C-262.9007725 75.0929741 -255.40990096 78.81652292 -248.00439453 82.79248047 C-241.38933289 86.3433881 -234.70317991 89.73076994 -227.95849609 93.02832031 C-225.975498 94.01215631 -224.0133775 95.03085106 -222.05078125 96.0546875 C-211.51361331 101.50820383 -211.51361331 101.50820383 -200 101 C-195.20276231 98.91740549 -190.66537123 96.35018238 -186.109375 93.79296875 C-181.13309304 91.01553125 -176.03049359 88.65837547 -170.8125 86.375 C-164.49265072 83.58853218 -158.23834327 80.71904061 -152.0625 77.625 C-151.41837158 77.30321777 -150.77424316 76.98143555 -150.1105957 76.64990234 C-146.64929423 74.8991143 -143.32141844 72.99974675 -140 71 C-138.33136711 70.28019758 -136.66185017 69.56222924 -134.984375 68.86328125 C-130.90470115 67.08846251 -126.96868389 65.00750547 -123 63 C-120.29292833 61.64330743 -117.58390045 60.29053656 -114.875 58.9375 C-113.55986357 58.28001246 -112.24475883 57.62246151 -110.9296875 56.96484375 C-110.28354492 56.64241699 -109.63740234 56.31999023 -108.97167969 55.98779297 C-107.63691237 55.31908711 -106.30428031 54.646105 -104.97363281 53.96923828 C-100.71039139 51.80888123 -96.39604568 49.88047552 -92 48 C-89.53140846 46.78721701 -87.07515059 45.56106311 -84.625 44.3125 C-78.95750908 41.44954067 -73.25525859 38.68199155 -67.5 36 C-59.25508394 32.1517454 -51.12079016 28.10246133 -43 24 C-40.35548005 22.66404123 -37.70991679 21.33020991 -35.0625 20 C-34.41152344 19.67290039 -33.76054688 19.34580078 -33.08984375 19.00878906 C-27.39147813 16.16240506 -21.63389307 13.44826113 -15.84594727 10.7890625 C-6.78060647 6.85237676 -6.78060647 6.85237676 0 0 Z " fill="#273E74" transform="translate(717,627)"/>
<path d="M0 0 C0.8559375 0.47308594 1.711875 0.94617188 2.59375 1.43359375 C7.31582321 3.94015337 12.06008093 6.30620516 16.90625 8.55859375 C21.86192122 10.87332055 26.80671372 13.20815792 31.734375 15.58203125 C41.00854412 20.04919445 50.27946149 24.46346436 59.73950195 28.52416992 C64.49910477 30.57758621 69.10444647 32.85753651 73.71875 35.21484375 C78.045201 37.33800952 82.44017358 39.28913248 86.84375 41.24609375 C93.75875585 44.32143802 100.55484256 47.553727 107.29589844 50.99169922 C111.82958374 53.28594954 116.4232164 55.37162809 121.09375 57.37109375 C128.61781324 60.59317844 135.9169986 64.19373823 143.20703125 67.91064453 C145.2397213 68.9454016 147.27484516 69.97505208 149.3125 71 C150.25512695 71.47481812 150.25512695 71.47481812 151.21679688 71.95922852 C154.13100122 73.37501327 157.10342222 74.62512384 160.09375 75.87109375 C159.76375 76.53109375 159.43375 77.19109375 159.09375 77.87109375 C153.24444874 79.44963881 149.5055056 78.23438004 144.29296875 75.59375 C143.55202469 75.23637253 142.81108063 74.87899506 142.04768372 74.51078796 C139.61740041 73.33435523 137.19978536 72.13396627 134.78125 70.93359375 C133.07774795 70.10454188 131.37330609 69.27741856 129.66796875 68.45214844 C126.17148355 66.75850572 122.67893228 65.05712796 119.18896484 63.35009766 C112.3899597 60.03230888 105.54506081 56.81390426 98.69406128 53.60522461 C96.58230439 52.61573074 94.47176251 51.62368943 92.36157227 50.63085938 C82.71891881 46.09489643 73.06294375 41.5877999 63.40341187 37.08792114 C52.72219677 32.11088176 42.06114161 27.09171619 31.40625 22.05859375 C30.6365387 21.69516876 29.86682739 21.33174377 29.0737915 20.95730591 C21.95267404 17.59480272 14.83277821 14.23022751 7.73046875 10.828125 C6.8386792 10.40184814 5.94688965 9.97557129 5.02807617 9.53637695 C3.47327305 8.79211105 1.9198977 8.04485017 0.3684082 7.29370117 C-5.3745188 4.30953878 -5.3745188 4.30953878 -11.5 4.65625 C-12.4590625 5.07777344 -13.418125 5.49929688 -14.40625 5.93359375 C-15.47488281 6.4028125 -16.54351562 6.87203125 -17.64453125 7.35546875 C-21.67366618 9.22768953 -25.64247343 11.1993075 -29.6015625 13.21484375 C-33.36292396 15.09997053 -37.1587682 16.89937093 -40.96875 18.68359375 C-42.04129028 19.18596558 -42.04129028 19.18596558 -43.13549805 19.69848633 C-44.62560406 20.39625918 -46.11575802 21.09392967 -47.60595703 21.79150391 C-51.5447349 23.64007913 -55.47514313 25.50627643 -59.40625 27.37109375 C-72.52843039 33.58970584 -85.66870623 39.76509163 -98.84375 45.87109375 C-108.99636186 50.57769477 -119.13390602 55.31544326 -129.25897217 60.08102417 C-130.7276505 60.77228264 -132.19644053 61.46330383 -133.66534424 62.15408325 C-140.49095564 65.36405501 -147.31426343 68.577369 -154.109375 71.8515625 C-154.99294678 72.27598633 -155.87651855 72.70041016 -156.78686523 73.13769531 C-158.34089051 73.88592393 -159.89272384 74.6387336 -161.44165039 75.39746094 C-164.89279405 77.05802334 -168.07123108 78.48343841 -171.90625 78.87109375 C-174.21875 77.93359375 -174.21875 77.93359375 -175.90625 76.87109375 C-175.90625 76.21109375 -175.90625 75.55109375 -175.90625 74.87109375 C-170.30283777 72.01865252 -164.6866545 69.34840996 -158.90625 66.87109375 C-156.43679115 65.65239977 -153.98128609 64.40959911 -151.53125 63.15234375 C-148.36805121 61.60840148 -145.14842463 60.2413191 -141.90625 58.87109375 C-134.35731369 55.6527889 -126.84679283 52.40969215 -119.53125 48.68359375 C-112.92125017 45.32219452 -106.20871487 42.21278023 -99.46875 39.12109375 C-90.70875555 35.10070533 -81.97465045 31.03371095 -73.28125 26.87109375 C-72.35256104 26.42668945 -71.42387207 25.98228516 -70.46704102 25.52441406 C-66.45162829 23.5964268 -62.44807816 21.64993128 -58.46875 19.6484375 C-56.18809903 18.51061273 -53.87614081 17.43234354 -51.53125 16.43359375 C-47.77943913 14.81643389 -44.16464712 13.01685017 -40.53125 11.15234375 C-38.60816898 10.21369706 -36.65174241 9.34256029 -34.6796875 8.51171875 C-31.84603717 7.31634436 -29.11704789 5.98203471 -26.3828125 4.57421875 C-25.58875 4.17332031 -24.7946875 3.77242188 -23.9765625 3.359375 C-22.34620021 2.53377621 -20.72365842 1.69254919 -19.109375 0.8359375 C-12.23498818 -2.5790087 -7.15729638 -2.78018636 0 0 Z " fill="#263D71" transform="translate(519.90625,304.12890625)"/>
<path d="M0 0 C1.2831085 1.86743491 2.47481119 3.79788672 3.625 5.75 C4.34449059 6.9529395 5.06589022 8.15473897 5.7890625 9.35546875 C6.34062012 10.27271729 6.34062012 10.27271729 6.90332031 11.20849609 C9.7786946 15.90562355 12.91946334 20.43624198 16 25 C21.10476189 32.60325379 26.11329837 40.25481514 31 48 C31.51046875 48.79019531 32.0209375 49.58039063 32.546875 50.39453125 C33.00578125 51.10996094 33.4646875 51.82539063 33.9375 52.5625 C34.33839844 53.18253906 34.73929688 53.80257812 35.15234375 54.44140625 C36 56 36 56 36 58 C34.14575195 57.70288086 34.14575195 57.70288086 32 57 C30.23630784 54.54501142 28.69829373 52.1656047 27.1875 49.5625 C23.95136204 44.10640266 20.54437937 38.86482939 16.87573242 33.68823242 C13.48544772 28.829398 10.2848563 23.84609333 7.0625 18.875 C6.37865234 17.823125 5.69480469 16.77125 4.99023438 15.6875 C3.32526379 13.1260068 1.66188228 10.56349749 0 8 C-4.02584932 8.53884445 -7.22556969 9.36951119 -10.8359375 11.22265625 C-11.72708252 11.67471436 -12.61822754 12.12677246 -13.53637695 12.5925293 C-14.47312256 13.07761963 -15.40986816 13.56270996 -16.375 14.0625 C-17.84102661 14.80850464 -17.84102661 14.80850464 -19.33666992 15.56958008 C-21.31082685 16.5742084 -23.28342657 17.58190305 -25.25439453 18.59277344 C-28.93078994 20.47706502 -32.61872407 22.33755855 -36.3125 24.1875 C-36.94663818 24.50605957 -37.58077637 24.82461914 -38.23413086 25.15283203 C-42.93024575 27.49939218 -47.6758914 29.7275279 -52.4375 31.9375 C-58.96901319 34.9740414 -65.34544976 38.23924352 -71.69287109 41.64208984 C-78.41156687 45.24056201 -85.21695577 48.64794907 -92.046875 52.02929688 C-93.9515973 52.97594386 -95.85154948 53.93147061 -97.75 54.890625 C-105.61968767 58.86151243 -113.5418496 62.70935439 -121.5 66.5 C-128.10324006 69.64772527 -134.70333088 72.79838374 -141.25 76.0625 C-142.17474121 76.52257446 -142.17474121 76.52257446 -143.11816406 76.99194336 C-146.80453924 78.84421776 -150.44104647 80.77367453 -154.0625 82.75 C-154.92456055 83.21656006 -155.78662109 83.68312012 -156.67480469 84.16381836 C-158.35846878 85.07827718 -160.03651492 86.00317646 -161.70800781 86.93969727 C-162.46952148 87.35276123 -163.23103516 87.7658252 -164.015625 88.19140625 C-165.02544434 88.75130249 -165.02544434 88.75130249 -166.05566406 89.32250977 C-168.42353241 90.1475769 -169.66863297 89.81623851 -172 89 C-172 87.68 -172 86.36 -172 85 C-171.35933594 84.68546875 -170.71867188 84.3709375 -170.05859375 84.046875 C-164.1093862 81.10332183 -164.1093862 81.10332183 -158.3125 77.875 C-154.94985674 75.97161702 -151.5590184 74.49853406 -148 73 C-143.71731801 70.97737812 -139.55980284 68.76810585 -135.4375 66.4375 C-131.71836287 64.34866956 -127.93804698 62.64681965 -124 61 C-122.04386537 60.05891842 -120.10738481 59.08432136 -118.171875 58.1015625 C-116.62427076 57.31662654 -115.071603 56.54164047 -113.515625 55.7734375 C-109.72133758 53.89928947 -105.96234517 52.01907945 -102.3125 49.875 C-99 48 -99 48 -95.625 46.5625 C-92.76770707 45.33090822 -90.19424732 44.02978449 -87.5 42.5 C-83.76111959 40.37793274 -79.95330828 38.69427498 -76 37 C-73.78047159 35.79511315 -71.58884719 34.55171702 -69.40625 33.28125 C-67 32 -67 32 -63.80859375 30.64746094 C-60.01523339 29.03429179 -56.33246974 27.22166899 -52.65625 25.359375 C-51.2422226 24.64771671 -49.8281588 23.93613074 -48.4140625 23.22460938 C-47.68799805 22.85843506 -46.96193359 22.49226074 -46.21386719 22.11499023 C-42.57388519 20.28175272 -38.92727527 18.46180485 -35.28125 16.640625 C-33.82027992 15.91022141 -32.35934248 15.17975254 -30.8984375 14.44921875 C-13.77539063 5.88769531 -13.77539063 5.88769531 -11.91723633 4.96252441 C-10.54575775 4.27399082 -9.17889393 3.5762344 -7.81518555 2.87243652 C-6.74167847 2.32214783 -6.74167847 2.32214783 -5.64648438 1.76074219 C-4.6711676 1.25568146 -4.6711676 1.25568146 -3.67614746 0.74041748 C-2 0 -2 0 0 0 Z " fill="#294074" transform="translate(701,394)"/>
<path d="M0 0 C4.55840273 0.61882714 8.27940057 2.46907303 12.3125 4.5625 C13.74601219 5.29312879 15.17960829 6.02359299 16.61328125 6.75390625 C17.34240723 7.12789551 18.0715332 7.50188477 18.82275391 7.88720703 C22.20341359 9.61506606 25.60187891 11.30681711 29 13 C32.99184043 14.99299579 36.98185588 16.98936181 40.96484375 19 C47.7443679 22.4160393 54.55045563 25.74324505 61.4375 28.9375 C68.14998688 32.05232332 74.70351887 35.4089457 81.20483398 38.94311523 C85.38904298 41.20586238 89.61650363 43.14018695 94 45 C96.68583462 46.29587993 99.34220273 47.64774182 102 49 C103.23906663 49.62082401 104.47864164 50.2406345 105.71875 50.859375 C119.23958333 57.61979167 132.76041667 64.38020833 146.28125 71.140625 C146.88590088 71.44291016 147.49055176 71.74519531 148.11352539 72.05664062 C149.44356913 72.72174856 150.77347128 73.38713966 152.10327148 74.05273438 C156.18981092 76.0977295 156.18981092 76.0977295 160.28515625 78.125 C164.62361864 80.26085841 168.82288591 82.56335011 173 85 C172.01 86.98 172.01 86.98 171 89 C166.44030143 87.60502373 162.2862514 85.74445343 158.0625 83.5625 C151.28302417 80.11108651 144.43862888 76.8166304 137.5625 73.5625 C130.00783384 69.97787226 122.57132547 66.2468062 115.21337891 62.27587891 C109.24476859 59.07631474 103.15348483 56.17703296 97.02124023 53.30639648 C90.66826547 50.33024568 84.38459345 47.23477737 78.12084961 44.07592773 C74.27600132 42.13757111 70.42609613 40.20949909 66.57421875 38.28515625 C65.16625774 37.58146564 63.75829883 36.87777084 62.3503418 36.17407227 C61.63244476 35.81532013 60.91454773 35.45656799 60.17489624 35.08694458 C56.63717033 33.31890069 53.09985233 31.55004115 49.5625 29.78125 C48.13802287 29.06900634 46.7135437 28.35676677 45.2890625 27.64453125 C8 9 8 9 5.6730957 7.77807617 C4.01162871 6.86917631 4.01162871 6.86917631 2.04296875 6.95703125 C-1.24408849 8.6351274 -2.78328066 11.64661282 -4.6875 14.6875 C-5.11885254 15.35217285 -5.55020508 16.0168457 -5.99462891 16.70166016 C-8.21273684 20.13126479 -10.37149739 23.59561971 -12.51171875 27.07421875 C-12.90979736 27.71335205 -13.30787598 28.35248535 -13.71801758 29.01098633 C-14.47560264 30.23153116 -15.22203429 31.45908685 -15.95581055 32.6940918 C-18.50256974 36.80550305 -18.50256974 36.80550305 -21.2578125 37.8828125 C-22.12019531 37.94082031 -22.12019531 37.94082031 -23 38 C-21.79152311 32.89754203 -19.29543104 29.42586372 -16.27734375 25.265625 C-11.66832251 18.65646247 -7.48589124 11.7583233 -3.2175293 4.92602539 C-2.16956804 3.26824187 -1.08790115 1.63185173 0 0 Z " fill="#263C70" transform="translate(323,395)"/>
<path d="M0 0 C0 1.98 0 3.96 0 6 C-19.12107766 16.12539782 -19.12107766 16.12539782 -28.0078125 20.51953125 C-30.21594083 21.61206472 -32.41834636 22.71330398 -34.6171875 23.82421875 C-41.80182838 27.44815378 -49.02332453 30.96592019 -56.3125 34.375 C-62.71974738 37.37704228 -69.01083146 40.53821287 -75.25 43.875 C-83.22108652 48.13572366 -91.31210767 52.09123768 -99.48950195 55.94018555 C-104.09798979 58.11357501 -108.6704812 60.32177187 -113.1796875 62.6953125 C-114.38902954 63.32651001 -114.38902954 63.32651001 -115.62280273 63.97045898 C-117.11137598 64.75313356 -118.59335362 65.54855415 -120.06665039 66.35961914 C-124.96775859 68.92343042 -128.46398697 69.50327391 -134 69 C-139.29146757 66.40614335 -141.93234487 62.87215815 -145 58 C-145 57.34 -145 56.68 -145 56 C-145.66 56 -146.32 56 -147 56 C-148.5078125 54.1015625 -148.5078125 54.1015625 -150.125 51.625 C-150.93324219 50.40683594 -150.93324219 50.40683594 -151.7578125 49.1640625 C-153 47 -153 47 -153 45 C-153.66 45 -154.32 45 -155 45 C-155.33 43.68 -155.66 42.36 -156 41 C-156.66 41 -157.32 41 -158 41 C-162 35.58823529 -162 35.58823529 -162 33 C-162.66 33 -163.32 33 -164 33 C-164.33 31.68 -164.66 30.36 -165 29 C-165.66 29 -166.32 29 -167 29 C-167.33 27.68 -167.66 26.36 -168 25 C-168.66 25 -169.32 25 -170 25 C-171.625 23.9375 -171.625 23.9375 -173 22 C-173.1875 18.3125 -173.1875 18.3125 -173 15 C-169.65406247 18.22975915 -166.74399681 21.49844187 -164 25.25 C-163.22785156 26.29414062 -162.45570313 27.33828125 -161.66015625 28.4140625 C-161.23879395 28.98415039 -160.81743164 29.55423828 -160.38330078 30.14160156 C-157.76504094 33.65910843 -155.10058596 37.14138114 -152.4375 40.625 C-151.88296143 41.35178955 -151.32842285 42.0785791 -150.75708008 42.82739258 C-147.02675876 47.7018486 -143.2187825 52.49577279 -139.29296875 57.21484375 C-138 59 -138 59 -138 61 C-131.19147663 63.26950779 -125.8963277 62.71502717 -119.39331055 59.54272461 C-116.60940665 58.10446967 -113.84800776 56.62847536 -111.09667969 55.12890625 C-107.77121144 53.33838865 -104.38521947 51.67389078 -101 50 C-99.66634099 49.33398509 -98.33300797 48.66731699 -97 48 C-73 36 -73 36 -70.99975586 35 C-69.66710607 34.33359376 -68.33458638 33.66692727 -67.00219727 33 C-63.6594268 31.32718536 -60.31448271 29.65902312 -56.96484375 28 C-55.62220427 27.33371922 -54.27975574 26.66705351 -52.9375 26 C-52.27782227 25.67217529 -51.61814453 25.34435059 -50.93847656 25.0065918 C-46.32432672 22.69895058 -41.78244625 20.2759249 -37.25 17.8125 C-32.04140856 14.98801405 -26.77517055 12.61386725 -21.26953125 10.4296875 C-16.20657008 8.21577616 -11.3774348 5.57822941 -6.52197266 2.94555664 C-1.08507781 0 -1.08507781 0 0 0 Z " fill="#283F74" transform="translate(696,495)"/>
<path d="M0 0 C4.66775911 0.6435163 8.61599186 2.53095965 12.8125 4.5625 C13.55878662 4.91892578 14.30507324 5.27535156 15.07397461 5.64257812 C22.09642214 9.01133997 29.06334049 12.49019505 36.01611328 16 C39.33975019 17.67531587 42.67022014 19.33693716 46 21 C47.33336588 21.66660157 48.66669922 22.33326822 50 23 C50.66 23.33 51.32 23.66 52 24 C118 57 118 57 120.15234375 58.1875 C124.05921319 59.90553138 127.87118762 59.84543615 132 59 C133.90516344 57.49813742 133.90516344 57.49813742 135.4453125 55.453125 C136.04029541 54.72496582 136.63527832 53.99680664 137.24829102 53.24658203 C137.82635498 52.50520996 138.40441895 51.76383789 139 51 C139.51167725 50.35272949 140.02335449 49.70545898 140.55053711 49.03857422 C142.07474423 47.08199458 143.571428 45.10692768 145.0625 43.125 C146.18416162 41.6452765 147.30658582 40.16613081 148.4296875 38.6875 C149.2973877 37.54474609 149.2973877 37.54474609 150.18261719 36.37890625 C153.91796662 31.4894322 157.7139362 26.64673181 161.50610352 21.80126953 C162.06483154 21.08567871 162.62355957 20.37008789 163.19921875 19.6328125 C163.69252686 19.00262207 164.18583496 18.37243164 164.6940918 17.72314453 C165.85481803 16.19156746 166.93402068 14.59896898 168 13 C168.66 13 169.32 13 170 13 C170.4287576 18.36712641 170.4287576 18.36712641 168.53125 21.16796875 C167.52578125 22.16763672 167.52578125 22.16763672 166.5 23.1875 C163.47499793 26.36586756 160.78433886 29.54178561 158.25 33.125 C154.47332225 38.4287368 150.4590276 43.50254759 146.37011719 48.56591797 C142.99901467 52.74053471 139.7038792 56.96041232 136.5 61.265625 C133.58830516 64.63227216 131.97443221 65.86323758 127.4375 66.5 C121.72729571 66.26779206 117.00134988 63.55115963 112 61 C111.07316406 60.54238281 110.14632812 60.08476563 109.19140625 59.61328125 C106.1192247 58.09178021 103.05972339 56.54639081 100 55 C97.5838706 53.7905764 95.16722219 52.58223402 92.75 51.375 C91.3801749 50.69017103 90.01038495 50.00527177 88.640625 49.3203125 C87.90392578 48.95196289 87.16722656 48.58361328 86.40820312 48.20410156 C53.6875 31.84375 53.6875 31.84375 50.57258606 30.28625488 C48.53900662 29.26949041 46.50538702 28.25280627 44.47172546 27.23620605 C40.0685062 25.03499559 35.6656564 22.8330691 31.26489258 20.62695312 C21.01281365 15.48881736 21.01281365 15.48881736 10.6875 10.5 C9.97400391 10.15453125 9.26050781 9.8090625 8.52539062 9.453125 C4.4448431 7.51222088 4.4448431 7.51222088 0 7 C0 4.69 0 2.38 0 0 Z " fill="#253C70" transform="translate(330,498)"/>
<path d="M0 0 C4.55844751 0.61883322 8.2792907 2.46917804 12.3125 4.5625 C13.73432455 5.28655741 15.15620111 6.0105127 16.578125 6.734375 C17.30580078 7.10755859 18.03347656 7.48074219 18.78320312 7.86523438 C22.36692121 9.69971914 25.96405791 11.50711797 29.5625 13.3125 C30.20421143 13.63742432 30.84592285 13.96234863 31.50708008 14.29711914 C34.60364981 15.85408749 37.70700436 17.32363278 40.90234375 18.66796875 C44 20 44 20 45 21 C45.08685603 22.56172745 45.10702219 24.12729344 45.09765625 25.69140625 C45.09443359 26.63564453 45.09121094 27.57988281 45.08789062 28.55273438 C45.07532227 30.04256836 45.07532227 30.04256836 45.0625 31.5625 C45.05798828 32.55958984 45.05347656 33.55667969 45.04882812 34.58398438 C45.03700007 37.05604849 45.02051849 39.52799518 45 42 C40.63231005 38.4364036 36.63667232 34.67287429 32.70703125 30.62890625 C32.23127655 30.14054291 31.75552185 29.65217957 31.26535034 29.14901733 C29.28502939 27.11493759 27.30592493 25.08026317 25.34741211 23.02514648 C19.2212173 16.61186639 13.45271444 11.59200028 5.50268555 7.41772461 C3.20409938 6.11561848 1.60841526 5.08392906 0 3 C0 2.01 0 1.02 0 0 Z " fill="#254180" transform="translate(261,464)"/>
<path d="M0 0 C0.66 0 1.32 0 2 0 C1.3077775 5.09781728 -0.3243788 6.90082118 -4.20507812 10.09521484 C-10.30220785 14.25050888 -17.08065368 17.19903712 -23.75 20.3125 C-25.27010001 21.03330697 -26.78963644 21.75530375 -28.30859375 22.47851562 C-31.08349411 23.79818708 -33.86156545 25.11062694 -36.64355469 26.4152832 C-39.11299633 27.58120885 -41.56634415 28.7619797 -44 30 C-44 27.69 -44 25.38 -44 23 C-35.76344419 18.83183717 -27.5055432 14.74663588 -19.125 10.875 C-8.8849498 6.47116966 -8.8849498 6.47116966 0 0 Z " fill="#283F75" transform="translate(762,460)"/>
<path d="M0 0 C4.55844751 0.61883322 8.2792907 2.46917804 12.3125 4.5625 C13.73432455 5.28655741 15.15620111 6.0105127 16.578125 6.734375 C17.30580078 7.10755859 18.03347656 7.48074219 18.78320312 7.86523438 C22.36692121 9.69971914 25.96405791 11.50711797 29.5625 13.3125 C30.20421143 13.63742432 30.84592285 13.96234863 31.50708008 14.29711914 C34.60364981 15.85408749 37.70700436 17.32363278 40.90234375 18.66796875 C44 20 44 20 45 21 C45.04063832 22.66617115 45.042721 24.33388095 45 26 C39.81465027 24.70366257 35.41524882 22.81162591 30.75 20.1875 C26.26956901 17.72775337 21.80384217 15.38173443 17.125 13.3125 C3.4535338 7.25216349 3.4535338 7.25216349 0 3 C0 2.01 0 1.02 0 0 Z " fill="#23396D" transform="translate(261,464)"/>
<path d="M0 0 C0.71484375 1.671875 0.71484375 1.671875 1 4 C-0.43359375 6.578125 -0.43359375 6.578125 -2.4375 9.25 C-3.42556641 10.58804687 -3.42556641 10.58804687 -4.43359375 11.953125 C-4.95050781 12.62859375 -5.46742188 13.3040625 -6 14 C-7.32 13.67 -8.64 13.34 -10 13 C-9.09376275 11.38991848 -8.17454201 9.78714075 -7.25 8.1875 C-6.73953125 7.29417969 -6.2290625 6.40085937 -5.703125 5.48046875 C-4.01420872 3.02069389 -2.47827164 1.62165166 0 0 Z " fill="#283F72" transform="translate(297,438)"/>
<path d="M0 0 C0.33 0.99 0.66 1.98 1 3 C-1.91505912 7.11537759 -4.50012095 9.6316426 -9 12 C-9.99 12.66 -10.98 13.32 -12 14 C-10.61961693 11.06832929 -9.04174667 8.48693977 -7.125 5.875 C-6.63257813 5.19179688 -6.14015625 4.50859375 -5.6328125 3.8046875 C-3.88955029 1.877924 -2.37803241 0.99856772 0 0 Z " fill="#314677" transform="translate(479,539)"/>
<path d="M0 0 C2.375 0.1875 2.375 0.1875 5 1 C6.125 3.5 6.125 3.5 7 6 C7.99 6.33 8.98 6.66 10 7 C10 7.66 10 8.32 10 9 C5.61633881 7.80445604 2.84621677 6.6125059 0 3 C0 2.01 0 1.02 0 0 Z " fill="#26417E" transform="translate(261,464)"/>
<path d="M0 0 C0.99 0 1.98 0 3 0 C1.25 5.75 1.25 5.75 -1 8 C-1.66 8 -2.32 8 -3 8 C-3.99 8.495 -3.99 8.495 -5 9 C-3.49901406 5.88256767 -1.97568178 2.84498177 0 0 Z " fill="#364B7A" transform="translate(299,432)"/>
<path d="M0 0 C0.33 0.99 0.66 1.98 1 3 C0.01 3.99 -0.98 4.98 -2 6 C-2.33 5.01 -2.66 4.02 -3 3 C-2.01 2.01 -1.02 1.02 0 0 Z M-5 4 C-4.34 4.33 -3.68 4.66 -3 5 C-3.99 5.66 -4.98 6.32 -6 7 C-5.67 6.01 -5.34 5.02 -5 4 Z " fill="#21386E" transform="translate(482,535)"/>
</svg>
